<svg width="164" height="39" viewBox="0 0 164 39" fill="none" xmlns="http://www.w3.org/2000/svg">
<path fill-rule="evenodd" clip-rule="evenodd" d="M76.5032 11.4237C76.5032 11.6087 76.3743 11.7158 76.1924 11.7158H67.3415V18.3943H75.2091C75.39 18.3943 75.4934 18.4999 75.4934 18.6854V20.17C75.4934 20.355 75.39 20.4611 75.2091 20.4611H67.3415V28.3059C67.3415 28.4919 67.2372 28.5975 67.0563 28.5975H65.4509C65.2445 28.5975 65.1406 28.4919 65.1406 28.3059V9.94001C65.1406 9.75358 65.2445 9.64795 65.4509 9.64795H76.1924C76.3743 9.64795 76.5032 9.75358 76.5032 9.94001V11.4237Z" fill="#00235A"/>
<path fill-rule="evenodd" clip-rule="evenodd" d="M79.83 28.5964C79.6391 28.5964 79.5303 28.4901 79.5303 28.3037V15.9015C79.5303 15.742 79.5844 15.6088 79.748 15.5562C81.1104 14.9186 82.7994 14.5737 84.4058 14.5737C85.305 14.5737 86.231 14.6532 87.2117 14.7859C87.4016 14.8123 87.4841 14.9449 87.4841 15.1308V16.4327C87.4841 16.6449 87.3752 16.7508 87.157 16.6981C86.3945 16.5917 85.5227 16.5122 84.7056 16.5122C83.5887 16.5122 82.4992 16.7508 81.764 17.0434V28.3037C81.764 28.4901 81.6547 28.5964 81.4375 28.5964H79.83Z" fill="#00235A"/>
<path fill-rule="evenodd" clip-rule="evenodd" d="M96.0495 16.9313C94.0932 16.9313 92.6839 17.9737 92.6839 20.2719V21.3943H99.4151V20.2719C99.4151 18.0002 97.9544 16.9313 96.0495 16.9313ZM101.502 22.8901C101.502 23.1036 101.398 23.211 101.216 23.211H92.6839V24.3329C92.6839 26.3371 94.1451 27.4055 96.0757 27.4055C97.8754 27.4055 99.1023 26.6841 100.067 25.9092C100.224 25.8027 100.381 25.8292 100.484 25.9897L101.241 27.0051C101.372 27.1651 101.346 27.2985 101.19 27.4325C99.8855 28.5544 98.2153 29.3563 96.0238 29.3563C93.2052 29.3563 90.5186 27.6995 90.5186 24.3329V20.2719C90.5186 16.6104 93.1795 14.9546 96.0495 14.9546C98.8933 14.9546 101.502 16.6104 101.502 20.2719V22.8901Z" fill="#00235A"/>
<path fill-rule="evenodd" clip-rule="evenodd" d="M106.333 28.5964C106.153 28.5964 106.049 28.4901 106.049 28.3037V15.981C106.049 15.822 106.101 15.6888 106.256 15.6088C107.729 14.9713 109.435 14.5737 111.218 14.5737C114.681 14.5737 117.033 16.2464 117.033 20.3097V28.3037C117.033 28.4901 116.929 28.5964 116.723 28.5964H115.198C115.017 28.5964 114.914 28.4901 114.914 28.3037V20.3629C114.914 17.601 113.544 16.5386 111.218 16.5386C110.133 16.5386 108.969 16.7508 108.168 17.0171V28.3037C108.168 28.4901 108.065 28.5964 107.858 28.5964H106.333Z" fill="#00235A"/>
<path fill-rule="evenodd" clip-rule="evenodd" d="M127.108 16.9313C125.152 16.9313 123.742 17.9737 123.742 20.2719V21.3943H130.474V20.2719C130.474 18.0002 129.013 16.9313 127.108 16.9313ZM132.561 22.8901C132.561 23.1036 132.457 23.211 132.274 23.211H123.742V24.3329C123.742 26.3371 125.204 27.4055 127.134 27.4055C128.934 27.4055 130.161 26.6841 131.126 25.9092C131.283 25.8027 131.439 25.8292 131.543 25.9897L132.3 27.0051C132.431 27.1651 132.404 27.2985 132.248 27.4325C130.944 28.5544 129.274 29.3563 127.082 29.3563C124.264 29.3563 121.577 27.6995 121.577 24.3329V20.2719C121.577 16.6104 124.238 14.9546 127.108 14.9546C129.952 14.9546 132.561 16.6104 132.561 20.2719V22.8901Z" fill="#00235A"/>
<path fill-rule="evenodd" clip-rule="evenodd" d="M141.923 26.9967C142.221 26.9967 142.735 26.9708 143.222 26.945C143.438 26.945 143.546 27.0488 143.546 27.2315V28.6111C143.546 28.7675 143.465 28.8976 143.276 28.9234C142.789 28.9492 142.166 28.976 141.815 28.976C139.109 28.976 137.107 27.5696 137.107 24.3674V12.2337C137.107 12.0256 137.216 11.9214 137.432 11.9214H138.839C139.001 11.9214 139.109 12.0256 139.136 12.2078L139.326 15.3583H142.843C143.032 15.3583 143.14 15.4621 143.14 15.6448V16.9465C143.14 17.1545 143.032 17.2588 142.843 17.2588H139.326V24.2627C139.326 25.9809 140.246 26.9967 141.923 26.9967Z" fill="#00235A"/>
<path fill-rule="evenodd" clip-rule="evenodd" d="M147.612 28.5975C147.347 28.5975 147.215 28.4908 147.215 28.3038V15.1387C147.215 14.9517 147.347 14.8186 147.612 14.8186H149.567C149.798 14.8186 149.931 14.9517 149.931 15.1387V28.3038C149.931 28.4908 149.798 28.5975 149.567 28.5975H147.612ZM148.606 12.2599C147.678 12.2599 146.949 11.7004 146.949 10.9544C146.949 10.181 147.678 9.64795 148.606 9.64795C149.534 9.64795 150.229 10.181 150.229 10.9544C150.229 11.7004 149.534 12.2599 148.606 12.2599Z" fill="#00235A"/>
<path fill-rule="evenodd" clip-rule="evenodd" d="M159.3 29.3563C155.864 29.3563 153.771 27.2186 153.771 24.1991V20.1383C153.771 17.0922 155.89 14.9546 159.275 14.9546C160.799 14.9546 162.195 15.409 163.486 16.2904C163.667 16.4239 163.667 16.5848 163.564 16.7448L162.892 17.8406C162.788 17.9741 162.634 18.0271 162.479 17.9206C161.523 17.2792 160.463 16.9318 159.326 16.9318C157.105 16.9318 155.89 18.2416 155.89 20.1383V24.1991C155.89 26.1233 157.13 27.4056 159.3 27.4056C160.489 27.4056 161.652 27.0047 162.763 26.2303C162.918 26.0958 163.073 26.1233 163.177 26.2838L163.925 27.3791C164.029 27.5391 164.029 27.6995 163.874 27.806C162.53 28.8219 161.109 29.3563 159.3 29.3563Z" fill="#00235A"/>
<path fill-rule="evenodd" clip-rule="evenodd" d="M32.8552 0.171389C35.2121 0.20097 37.323 1.62087 38.2173 3.77816C39.1115 5.93545 38.616 8.41255 36.9586 10.0704L30.0777 16.9734C28.7966 18.4404 28.7966 20.6147 30.0777 22.0817L36.9586 28.9848C38.5775 30.647 39.0488 33.0993 38.1593 35.2332C37.2698 37.3671 35.1881 38.7782 32.8552 38.8285C31.3125 38.8299 29.834 38.218 28.7518 37.1304L21.871 30.2273C20.4225 28.9394 18.2252 28.9394 16.7767 30.2273L9.89587 37.1304C8.81374 38.218 7.3352 38.8299 5.7925 38.8285C2.5759 38.8057 -0.0151394 36.2118 0.000164634 33.03C-0.0115394 31.4803 0.601224 29.9898 1.70309 28.8881L8.94679 21.6399C9.85958 20.3258 9.85958 18.5913 8.94679 17.2772L1.70309 10.0704C0.611489 8.9789 -0.000440053 7.50531 0.000164634 5.96996C-0.0151394 2.78809 2.5759 0.194191 5.7925 0.171389C7.3352 0.170049 8.81374 0.781934 9.89587 1.86954L16.7767 8.7726C18.2252 10.0606 20.4225 10.0606 21.871 8.7726L28.7518 1.86954C29.834 0.781934 31.3125 0.170049 32.8552 0.171389ZM44.4535 13.7014C46.8294 13.679 48.9839 15.0775 49.9089 17.2424C50.8338 19.4073 50.3461 21.9104 48.6741 23.5802C47.0021 25.2501 44.4764 25.7564 42.2791 24.8622C40.0818 23.968 38.6475 21.8503 38.6473 19.5C38.6399 17.9694 39.2475 16.4986 40.3363 15.4112C41.4252 14.3237 42.9062 13.7087 44.4535 13.7014Z" fill="#42D1F4"/>
</svg>
