<svg width="198" height="231" viewBox="0 0 198 231" fill="none" xmlns="http://www.w3.org/2000/svg">
<path d="M139.788 203.324C141.077 197.556 137.181 193.484 134.927 188.915C134.652 188.347 133.221 188.361 132.119 188.042L130.444 182.377L127.715 184.237C126.726 181.471 126.202 181.628 121.102 186.618C122.826 179.09 122.331 177.747 118.004 177.965C116.458 176.235 120.591 173.811 117.24 172.274C113.591 170.61 113.644 174.782 111.153 175.558C112.212 173.305 113.27 171.031 114.328 168.798C115.134 167.522 115.872 166.206 116.54 164.853C116.894 163.932 117.106 162.317 116.618 161.854C115.446 160.754 114.046 159.538 112.05 160.927C109.46 162.742 106.611 164.156 103.599 165.121C106.087 162.924 108.711 160.851 110.982 158.488C111.898 157.512 112.138 155.957 112.681 154.661L108.603 154.556C109.628 153.582 110.724 152.61 111.859 151.639C112.268 151.309 113.097 151.36 113.336 150.986C116.244 146.46 119.946 142.154 121.694 137.197C123.186 132.874 119.685 128.562 115.248 126.477C112.075 124.985 114.023 121.984 113.421 119.718C113.324 118.592 113.401 117.457 113.648 116.353C107.816 116.733 105.736 121.351 102.487 124.789C103.791 120.761 109.454 117.225 102.984 113.648L91.5234 108.071L90.2799 98.4757C91.6011 96.8892 93.4654 94.4164 95.6023 92.2306C96.2601 91.5473 97.6889 91.6141 98.757 91.3115C99.8101 90.9392 100.895 90.6658 101.999 90.4947C103.061 90.422 105.057 90.6334 105.09 90.8943C105.448 94.0646 107.642 93.961 109.298 93.7536C110.241 95.9786 110.697 98.8612 112.053 99.4163C113.409 99.9714 116.014 98.648 117.642 97.5595C118.457 96.9903 118.327 95.0563 118.53 94.1713L137.537 80.1357L138.061 80.3993L136.547 83.2613L136.823 84.1887C140.346 83.3291 143.869 82.4794 147.01 81.72C147.374 82.7297 147.455 84.2623 148.136 84.61C151.285 86.2315 154.205 85.1163 156.778 83.1018L159.304 87.5283L158.259 89.292C159.75 89.2504 160.751 89.2261 161.752 89.2119C160.131 92.3212 161.411 95.055 165.929 97.9222C164.021 100.164 165.07 101.001 167.518 101.494C170.801 102.169 171.749 104.604 169.782 107.174C167.816 109.745 168.93 111.534 170.456 113.654C171.545 115.449 172.542 117.297 173.444 119.193C174.077 120.269 174.922 121.231 175.636 122.25C176.35 123.269 176.906 124.213 177.561 125.211L176.54 125.995L173.599 123.678C172.746 122.996 171.907 121.774 171.047 121.762C169.598 121.725 168.147 122.507 166.696 122.94C167.474 123.811 168.082 125.057 169.05 125.512C173.084 127.366 177.224 128.983 181.123 131.384C178.888 130.767 176.6 130.268 174.44 129.482C171.815 128.474 170.138 129.111 169.488 131.835C168.834 134.262 168.313 136.723 167.927 139.207C167.659 140.815 167.774 142.463 168.264 144.018C169.406 147.048 171.115 149.843 172.319 152.815C172.601 153.512 171.974 154.537 171.982 155.407C171.952 156.587 171.741 158.162 172.383 158.868C177.09 164.081 178.142 168.29 175.218 173.496C179.346 175.173 179.611 178.861 179.874 183.399C178.915 181.947 177.833 180.58 176.638 179.315C175.7 178.519 174.529 178.05 173.301 177.978C172.842 177.967 172.358 179.665 171.061 180.702C171.113 179.148 171.059 177.592 170.9 176.046C170.613 175.206 170.176 174.426 169.609 173.742C168.21 174.68 166.874 175.708 165.609 176.82C165.106 177.297 165.392 178.625 164.89 179.082C161.02 182.554 162.529 186.504 163.596 190.503C164.009 192.433 164.313 194.384 164.506 196.348C162.903 196.047 161.52 195.781 160.116 195.525C156.65 187.153 156.182 186.681 152.895 188.457L150.115 184.554C149.378 185.955 148.474 186.903 148.459 187.872C148.409 189.822 147.476 190.278 145.815 190.305C141.601 190.397 139.557 193.265 140.358 197.517C140.709 199.427 142.673 201.638 139.779 203.274L139.788 203.324ZM117.609 99.2593C115.529 100.042 113.501 100.955 111.536 101.994C111.13 102.234 111.198 103.866 111.559 104.615C111.825 105.172 113.228 105.819 113.595 105.588C115.638 104.3 118.273 103.368 117.609 99.2593Z" fill="#000C24"/>
<path d="M-10.8326 188.594C-9.30463 190.634 -10.3683 191.927 -12.2577 192.658C-14.8026 193.593 -17.4241 194.396 -20.0167 195.239C-26.1094 197.21 -32.2054 199.177 -38.3046 201.141C-38.5771 201.234 -38.9244 201.125 -39.4785 200.5L-15.5892 189.952L-15.7606 189.227L-20.2391 189.112L-20.3349 188.559C-16.5314 187.307 -12.7643 185.913 -8.90725 184.912C-7.96061 184.666 -6.68834 185.759 -5.54849 186.169C-4.95126 186.469 -4.28552 186.607 -3.61814 186.569C1.02147 185.478 5.65264 184.326 9.23361 180.837C9.46831 180.608 9.75369 180.437 10.0667 180.339C14.2401 179.096 18.4406 177.963 22.5755 176.659C25.5298 175.769 28.4112 174.652 31.1943 173.32C31.7316 173.044 31.4632 171.036 31.4441 169.835C31.4644 169.046 30.8193 168.069 31.1136 167.516C32.1632 165.602 33.119 163.446 34.7245 162.087C37.68 159.582 36.2931 157.886 34.6305 156.413L35.1213 152.114L34.3457 151.934C36.8961 149.229 39.6327 146.678 41.8886 143.755C42.6741 142.775 42.2844 140.815 42.3768 139.947C44.0918 137.83 45.5852 135.778 47.3032 133.932C49.7517 131.304 53.1754 131.202 56.3829 130.954C58.1784 130.953 59.971 131.096 61.7436 131.382C62.0419 131.369 62.3389 131.429 62.6095 131.555C65.437 133.628 68.2446 135.701 71.0122 137.773C68.3535 138.855 68.5236 140.41 71.1446 142.348C72.2146 143.136 72.7674 144.59 73.6913 145.614C75.6369 147.755 80.0311 148.038 82.7808 146.919C84.2063 146.335 86.1125 146.895 87.9019 146.941L86.8684 142.012C89.1765 143.282 90.9215 143.887 92.2025 145.031C94.7642 147.327 94.737 150.328 94.3819 153.63C93.8919 158.288 94.3102 163.021 97.5426 166.855C98.2708 167.714 99.6534 168.02 100.285 168.356C98.9192 171.398 97.7236 174.513 96.7036 177.687C96.0174 180.25 97.3089 182.154 100.034 183.145C101.59 183.715 102.898 184.989 104.314 185.946L103.812 187.183C101.438 186.912 99.0676 186.501 96.6891 186.41C95.5425 186.53 94.4179 186.807 93.3469 187.234C93.7861 188.436 93.8961 189.989 94.726 190.781C97.6548 193.587 101.123 195.637 102.134 200.264C102.654 202.619 105.387 204.48 107.221 206.687C105.521 209.785 106.555 212.362 108.939 214.934C113.154 219.474 117.112 224.238 121.163 228.934C121.41 229.397 121.589 229.893 121.695 230.408C118.556 231.497 117.412 229.297 115.948 227.489C110.745 220.953 105.593 214.358 100.103 208.075C98.3648 206.029 95.6741 204.86 93.3304 203.419C92.9267 203.168 92.1351 203.608 91.5138 203.652C90.371 203.743 88.9171 204.266 88.12 203.755C84.4875 201.471 81.7021 203.59 79.767 204.54L76.645 211.572C76.0526 210.345 75.3745 209.161 74.6155 208.029C74.0053 207.253 73.0842 206.119 72.3826 206.171C71.2724 206.422 70.2838 207.05 69.5859 207.949C68.9824 208.736 68.6117 209.676 68.5157 210.663C68.1102 213.983 66.4999 213.972 64.0134 212.638C62.7872 212.021 61.3709 211.899 60.0573 212.297C58.7437 212.695 57.6334 213.583 56.956 214.777C56.3184 215.841 54.7539 217.551 54.4382 217.383C52.8002 216.532 51.3367 215.382 50.124 213.991C48.5838 212.015 47.1508 209.958 45.8312 207.828L43.4102 212.497C42.9125 211.624 42.6045 211.156 42.3671 210.66C41.6762 209.132 40.9609 208.163 39.2885 209.79C37.7701 211.262 36.1676 211.341 35.7403 208.899C35.1121 205.321 34.7657 201.681 34.3787 198.06C34.3362 197.06 34.362 196.058 34.4559 195.061C34.0123 194.81 33.8177 194.595 33.647 194.62C27.1316 195.523 26.7416 194.743 28.859 188.265C29.5646 186.112 29.4767 182.919 28.3222 181.139C26.8598 178.88 24.1293 177.7 20.8228 179.075C14.513 181.704 8.11772 184.16 1.63221 186.234C-2.21792 187.355 -6.37941 187.748 -10.8326 188.594Z" fill="#000C24"/>
<path d="M-9.24724 81.1487C-13.3963 77.5607 -14.2934 77.4376 -17.1389 79.9452L-17.4257 77.487L-23.6714 70.634C-20.6555 68.1108 -22.5346 65.3315 -24.1954 62.6179C-23.1762 61.3534 -22.0481 60.1808 -20.8241 59.1135C-19.1443 57.9111 -17.1355 57.2544 -15.0699 57.2324C-13.0043 57.2105 -10.982 57.8243 -9.27706 58.9906C-7.44701 60.1781 -6.07523 60.9036 -3.80578 59.0114C-1.20924 56.8475 2.28075 55.7269 5.32427 54.0747C9.16937 51.9829 12.7188 53.6048 15.2793 55.9515C16.8914 57.4435 16.8062 60.7523 17.7297 64.1272C21.4295 66.5132 27.9521 65.3307 30.0624 61.0736C30.2417 64.9895 36.3164 66.8264 43.6562 64.9847C42.4231 67.4237 42.0778 69.5656 45.1406 70.6648C45.4579 70.773 45.5373 71.5753 45.6948 72.0595C46.4414 74.648 47.3413 77.1897 48.3898 79.6713C47.9071 80.9393 45.7612 82.3046 48.0775 83.2545L45.0267 91.4087C40.9589 90.8838 42.632 95.4484 40.5038 97.2943C36.3715 97.3279 35.0183 98.2134 34.0744 101.85L31.8386 100.102L31.4615 103.093C28.9963 102.49 26.5023 101.445 24.0728 101.393C20.8668 101.328 17.7013 100.663 14.7402 99.432C13.1362 98.8723 11.7587 97.8042 10.8172 96.39C9.60215 94.6282 8.38375 95.3271 7.4475 96.7234C6.24131 98.503 5.16302 100.366 3.81842 102.082C4.17462 97.9596 8.93971 95.4914 8.11714 90.5286C6.67144 90.7315 5.44669 90.9 4.43265 91.044C5.49253 88.7305 6.79285 86.4032 7.61693 83.9236C8.34075 81.8415 5.55219 79.4189 3.18473 79.6781C1.74032 79.831 0.0050463 79.2361 -1.14079 79.8368C-3.9172 81.2158 -7.14317 77.1315 -9.24724 81.1487Z" fill="#000C24"/>
<path d="M118.102 38.5017C114.084 39.1485 112.255 41.032 113.69 43.5998C111.928 43.2344 110.011 42.3447 108.283 42.6103C106.747 42.8509 105.407 44.3769 104.429 45.042C99.4568 43.9136 94.7118 42.8812 89.997 41.8395L85.7629 35.7286C86.7199 33.5225 85.8091 30.0479 84.5142 29.4443L85.0688 21.8861L84.0743 21.6605L86.5435 21.3339C87.133 16.6975 91.3164 15.4548 93.2613 13.7342C96.5526 13.3388 98.8859 13.2388 101.139 12.7566C103.694 12.2022 107.548 14.4521 109.349 15.9689C113.097 19.2065 113.643 25.5726 119.758 26.2402C118.74 26.9342 117.408 27.4001 117.239 28.126C117.07 28.8519 118.124 29.8694 118.51 30.8096C118.915 31.5773 119.132 32.4293 119.146 33.2968C118.888 35.0485 118.539 36.7858 118.102 38.5017Z" fill="#000C24"/>
<path d="M60.1137 113.874C58.7728 116.05 57.2786 118.128 55.6423 120.091C54.3259 121.488 52.4044 122.299 50.7561 123.377C49.3408 124.341 47.6039 124.976 46.6002 126.271C45.1744 128.035 44.2144 128.41 42.8305 125.824C42.3814 128.893 40.4887 128.584 38.7688 128.17C36.78 127.709 36.0627 126.43 36.1877 124.292C36.4435 119.797 35.6407 119.116 31.6153 119.663C32.9512 115.956 31.8683 112.557 30.8789 109.411C32.9361 107.213 35.1813 104.71 37.6005 102.441C38.4208 101.662 39.8342 101.548 40.8793 100.975C45.517 98.4036 50.0801 98.7311 54.0612 102.235C55.2938 103.317 57.0469 102.832 58.2363 104.813C59.5108 106.987 61.6553 108.392 60.4777 111.393C60.1888 112.126 60.7713 113.201 60.9578 114.116L60.1137 113.874Z" fill="#000C24"/>
<path d="M83.9872 82.5584C82.4753 81.059 80.764 79.1443 78.8256 77.5039C76.1923 75.2654 76.2267 71.9852 79.1094 68.8083C81.2915 66.4237 84.2517 65.2895 87.0681 66.2423C89.6069 67.0979 92.3567 68.3091 93.012 71.9971C94.0008 77.4944 92.7311 79.4124 87.0111 80.1154C85.8069 80.2645 84.7642 81.9082 83.9872 82.5584Z" fill="#000C24"/>
<path d="M90.6225 48.638C90.4702 51.445 88.2715 53.6992 85.7833 53.5951C83.2952 53.4911 80.5089 50.5884 80.5607 48.1889C80.6125 45.7895 83.9617 42.3645 86.0684 42.5188C87.9242 42.7066 90.6791 46.4387 90.6225 48.638Z" fill="#000C24"/>
<path d="M142.719 9.82566C141.42 9.22799 140.158 8.5542 138.939 7.80776C137.839 7.01919 136.38 6.18137 136.009 5.05145C135.638 3.92153 135.86 1.52644 136.662 1.06693C137.973 0.250407 140.748 -0.278372 141.499 0.4712C143.041 2.22883 144.087 4.36535 144.531 6.66125C144.767 7.56764 143.272 8.9196 142.719 9.82566Z" fill="#000C24"/>
<path d="M193.632 121.863C191.787 115.813 192.627 111.153 196.076 108.921C198.215 111.697 197.115 117.531 193.632 121.863Z" fill="#000C24"/>
<path d="M7.70595 193.552C6.17717 196.594 1.41981 198.762 -3.28657 198.561C0.667169 196.912 2.49933 192.188 7.70595 193.552Z" fill="#000C24"/>
<path d="M191.817 136.031L183.457 131.634L183.545 131.346L189.85 133.159L192.28 126.99L193.095 127.191L191.817 136.031Z" fill="#000C24"/>
<path d="M180.385 101.785C180.925 99.9331 181.596 98.1218 182.395 96.3653C182.657 95.8719 184.035 95.9673 184.89 95.7893C184.96 96.5813 185.345 97.5616 185.02 98.1234C184.025 99.6587 182.945 101.137 181.785 102.552L180.385 101.785Z" fill="#000C24"/>
<path d="M82.0709 108.818L82.4453 94.2727L83.9632 94.3718L82.929 108.9L82.0709 108.818Z" fill="#000C24"/>
<path d="M183.089 174.299L184.265 165.156C187.792 168.798 185.101 171.55 183.864 174.519L183.089 174.299Z" fill="#000C24"/>
<path d="M10.3063 191.238C12.2281 190.027 14.0356 188.203 16.7416 190.724L10.4951 192.063L10.3063 191.238Z" fill="#000C24"/>
<path d="M139.788 203.314L141.549 215.364L140.346 215.483L139.788 203.314Z" fill="#000C24"/>
<path d="M141.448 29.6494C143.305 28.6269 143.945 25.5223 146.788 26.2157L147.392 27.2316C145.576 28.2452 143.749 29.2585 141.932 30.2821L141.448 29.6494Z" fill="#000C24"/>
</svg>
